<svg xmlns="http://www.w3.org/2000/svg" height="48" viewBox="0 -960 960 960" width="48"><path d="M280-220q-107.917 0-183.458-75.971Q21-371.941 21-480.471 21-589 96.542-664.5 172.083-740 280-740h400q107.917 0 183.458 75.971Q939-588.059 939-479.529 939-371 863.458-295.5 787.917-220 680-220H280Zm.286-80h399.422q73.942 0 126.617-52.536Q859-405.073 859-480.124q0-75.051-52.794-127.464Q753.413-660 680-660H280.578q-75.235 0-127.407 52.5Q101-555 101-480t52.29 127.5Q205.58-300 280.286-300Zm-.757-82q41.054 0 69.263-28.532Q377-439.064 377-479.824q0-40.759-28.267-69.468Q320.466-578 279.412-578t-69.733 28.532Q181-520.936 181-480.176q0 40.759 28.738 69.468Q238.475-382 279.529-382ZM480-480Z"/></svg>